<?xml version="1.0" standalone="no"?>
<!DOCTYPE svg PUBLIC "-//W3C//DTD SVG 20010904//EN"
 "http://www.w3.org/TR/2001/REC-SVG-20010904/DTD/svg10.dtd">
<svg version="1.0" xmlns="http://www.w3.org/2000/svg"
 width="315.000000pt" height="135.000000pt" viewBox="0 0 315.000000 135.000000"
 preserveAspectRatio="xMidYMid meet">

<g transform="translate(0.000000,135.000000) scale(0.100000,-0.100000)"
fill="#000000" stroke="none">
<path d="M416 864 c-3 -9 -6 -83 -6 -165 l0 -149 -155 0 c-85 0 -155 -4 -155
-8 0 -5 7 -33 16 -63 65 -221 253 -390 470 -421 101 -15 214 5 312 53 81 40
186 138 235 220 42 72 87 202 87 255 0 34 0 34 -45 34 -41 0 -45 -2 -50 -27
-20 -92 -29 -121 -54 -172 -88 -173 -253 -269 -445 -259 -72 4 -95 10 -158 41
-40 20 -95 57 -122 83 -50 48 -106 128 -106 151 0 10 31 13 135 13 l135 0 0
113 1 112 60 -112 60 -113 56 0 c30 0 53 3 51 8 -2 4 -52 101 -113 215 l-110
207 -46 0 c-34 0 -49 -4 -53 -16z"/>
<path d="M1630 370 c-24 -24 -25 -38 -4 -68 12 -17 24 -22 47 -20 17 2 32 9
35 15 2 9 -5 11 -27 7 -24 -5 -32 -2 -37 11 -11 27 10 50 40 47 28 -3 36 12
10 22 -27 10 -43 7 -64 -14z"/>
<path d="M1762 374 c-24 -17 -30 -62 -10 -82 7 -7 26 -12 43 -12 38 0 55 16
55 51 0 27 -30 59 -55 59 -6 0 -21 -7 -33 -16z m61 -25 c15 -24 1 -49 -27 -49
-29 0 -44 33 -25 56 15 18 38 15 52 -7z"/>
<path d="M1890 335 c0 -30 5 -55 10 -55 6 0 10 15 10 33 l0 32 26 -32 c39 -50
54 -44 54 22 0 30 -4 55 -10 55 -5 0 -10 -17 -10 -37 l-1 -38 -33 38 c-18 20
-36 37 -40 37 -3 0 -6 -25 -6 -55z"/>
<path d="M2036 377 c-22 -16 -12 -45 20 -53 32 -8 31 -26 -1 -22 -13 2 -25 -1
-27 -7 -2 -5 13 -11 33 -13 27 -2 38 1 43 13 8 22 0 34 -30 45 -32 13 -32 34
1 26 27 -7 35 8 9 18 -22 8 -28 8 -48 -7z"/>
<path d="M2142 338 c3 -50 5 -53 31 -56 41 -5 57 14 57 64 0 56 -18 57 -22 2
-2 -35 -7 -43 -23 -43 -16 0 -21 8 -23 43 -2 23 -8 42 -13 42 -6 0 -9 -22 -7
-52z"/>
<path d="M2270 335 l0 -55 35 0 c19 0 35 5 35 10 0 6 -11 10 -25 10 -23 0 -25
4 -25 45 0 25 -4 45 -10 45 -5 0 -10 -25 -10 -55z"/>
<path d="M2350 380 c0 -5 7 -10 15 -10 11 0 15 -12 15 -45 0 -25 5 -45 10 -45
6 0 10 18 10 41 0 32 4 42 20 46 11 3 17 9 14 14 -7 12 -84 11 -84 -1z"/>
<path d="M2482 374 c-24 -17 -30 -62 -10 -82 7 -7 26 -12 43 -12 38 0 55 16
55 51 0 27 -30 59 -55 59 -6 0 -21 -7 -33 -16z m58 -19 c20 -24 3 -57 -28 -53
-30 3 -41 30 -22 53 16 19 34 19 50 0z"/>
<path d="M2607 383 c-4 -3 -7 -28 -7 -55 0 -36 4 -48 15 -48 8 0 15 7 15 15 0
8 4 15 9 15 5 0 14 -7 21 -15 20 -24 26 -18 28 34 2 43 -1 49 -21 55 -29 8
-52 8 -60 -1z m58 -33 c0 -8 -8 -16 -17 -18 -13 -2 -18 3 -18 18 0 15 5 20 18
18 9 -2 17 -10 17 -18z"/>
<path d="M2730 335 l0 -55 40 0 c22 0 40 5 40 10 0 6 -13 10 -30 10 -16 0 -30
5 -30 10 0 6 11 10 25 10 14 0 25 5 25 10 0 6 -12 10 -26 10 -34 0 -26 24 9
28 42 5 32 22 -13 22 l-40 0 0 -55z"/>
<path d="M2850 375 c-17 -20 -6 -43 25 -51 32 -8 33 -26 0 -22 -13 2 -24 -1
-25 -7 0 -5 15 -10 33 -10 26 0 33 4 35 22 3 17 -3 26 -22 33 -34 13 -35 34
-1 26 27 -7 35 8 9 18 -25 10 -41 7 -54 -9z"/>
</g>
</svg>
